<?xml version="1.0" encoding="utf-8"?>
<!-- Generator: Adobe Illustrator 17.0.2, SVG Export Plug-In . SVG Version: 6.00 Build 0)  -->
<!DOCTYPE svg PUBLIC "-//W3C//DTD SVG 1.1//EN" "http://www.w3.org/Graphics/SVG/1.1/DTD/svg11.dtd">
<svg version="1.1" id="Layer_1" xmlns="http://www.w3.org/2000/svg" xmlns:xlink="http://www.w3.org/1999/xlink" x="0px" y="0px"
	 width="500px" height="500px" viewBox="0 0 500 500" enable-background="new 0 0 500 500" xml:space="preserve">
<g>
	<path fill="#FFFFFF" d="M250.152,77.505c-95.449,0-172.826,77.377-172.826,172.826s77.377,172.826,172.826,172.826
		s172.826-77.377,172.826-172.826S345.602,77.505,250.152,77.505z M358.109,255.749c-13.812,6.593-30.45,9.418-43.321,9.418
		c-2.197-0.942-2.197-5.65-0.314-6.278c33.904-6.279,46.147-25.428,46.147-52.739c0-28.601-15.788-47.783-44.758-50.008
		c-0.162,0.152-0.332,0.292-0.519,0.409l-6.748,0.942C295.411,159.376,294,165.968,294,187.943v119.292
		c0,25.535,0.221,33.548,8.856,37.031c2.813,1.069,6.362,1.693,11.069,2.208l8.437,0.942c1.884,1.569,1.236,6.906-0.648,7.848
		c-0.835-0.029-1.658-0.058-2.46-0.086c-0.045,0.028-0.091,0.403-0.137,0.426c-14.748-0.628-26.051-0.603-39.229-0.603
		c-0.009,0-0.017,0-0.026,0c-10.989,0-31.074,2.173-51.16,2.173c-24.172,0-49.914-4.25-70.319-15.238
		c-35.787-19.463-54.937-53.766-54.937-93.634c0-41.438,21.347-77.268,63.727-92.65c20.405-7.534,42.694-9.439,69.063-9.439
		c10.962,0,21.711,0.156,32.424,0.452c10.421-0.379,22.063-0.47,35.456-0.47c26.056,0,45.519,3.451,60.273,12.555
		c14.44,9.104,25.114,25.427,25.114,47.087C389.502,234.717,371.608,249.157,358.109,255.749z"/>
	<path fill="#FFFFFF" d="M261.663,334.232c3.317-4.683,5.243-10.339,5.993-17.943c0.03-2.745,0.344-5.752,0.344-9.056V191.394
		c0-26.683-0.935-32.334-15.062-33.59l-11.455-1.256c-0.17-0.146-0.397-0.314-0.537-0.491c-2.225-0.087-4.641-0.135-7.183-0.135
		c-82.248,0-98.905,58.39-98.905,92.921c0,58.39,27.302,98.258,88.203,98.258C242.837,347.102,254.757,343.964,261.663,334.232z"/>
</g>
</svg>
